<svg xmlns="http://www.w3.org/2000/svg" width="900" height="520" viewBox="0 0 900 520">
  <defs>
    <linearGradient id="bg" x1="0" y1="0" x2="1" y2="1">
      <stop offset="0" stop-color="#7aa0ff" stop-opacity="0.25"/>
      <stop offset="1" stop-color="#6ee7b7" stop-opacity="0.15"/>
    </linearGradient>
    <linearGradient id="screen" x1="0" y1="0" x2="0" y2="1">
      <stop offset="0" stop-color="#ffffff"/>
      <stop offset="1" stop-color="#e9eefc"/>
    </linearGradient>
    <filter id="shadow" x="-20%" y="-20%" width="140%" height="140%">
      <feDropShadow dx="0" dy="12" stdDeviation="18" flood-color="#0b1b4a" flood-opacity="0.25"/>
    </filter>
  </defs>
  <rect x="0" y="0" width="900" height="520" rx="28" fill="url(#bg)"/>
  <g filter="url(#shadow)">
    <rect x="210" y="120" width="520" height="300" rx="22" fill="url(#screen)" stroke="#c7d2fe" />
    <rect x="240" y="150" width="460" height="36" rx="12" fill="#ffffff" stroke="#dbe3ff"/>
    <circle cx="265" cy="168" r="8" fill="#60a5fa"/>
    <circle cx="290" cy="168" r="8" fill="#34d399"/>
    <circle cx="315" cy="168" r="8" fill="#fbbf24"/>
    <rect x="240" y="210" width="260" height="16" rx="8" fill="#c7d2fe"/>
    <rect x="240" y="238" width="320" height="16" rx="8" fill="#dbeafe"/>
    <rect x="240" y="266" width="290" height="16" rx="8" fill="#dbeafe"/>
    <rect x="540" y="230" width="160" height="120" rx="18" fill="#ffffff" stroke="#dbe3ff"/>
    <path d="M605 248 l18 32 h-36 z" fill="#f59e0b"/>
    <rect x="575" y="360" width="190" height="22" rx="11" fill="#c7d2fe"/>
    <rect x="395" y="430" width="150" height="20" rx="10" fill="#c7d2fe"/>
  </g>
  <g>
    <circle cx="165" cy="370" r="42" fill="#fbbf24" stroke="#d97706" stroke-width="6"/>
    <text x="165" y="382" text-anchor="middle" font-family="system-ui,Segoe UI,Arial" font-size="34" font-weight="800" fill="#7c2d12">$</text>
    <circle cx="760" cy="175" r="34" fill="#60a5fa" stroke="#1d4ed8" stroke-width="6"/>
    <text x="760" y="186" text-anchor="middle" font-family="system-ui,Segoe UI,Arial" font-size="26" font-weight="800" fill="#0b1b4a">₿</text>
  </g>
  <g transform="translate(95 135)">
    <circle cx="70" cy="70" r="52" fill="none" stroke="#0b1b4a" stroke-width="10" opacity="0.55"/>
    <rect x="110" y="110" width="70" height="14" rx="7" transform="rotate(45 110 110)" fill="#0b1b4a" opacity="0.45"/>
  </g>
</svg>
